<svg width="428" height="453" viewBox="0 0 428 453" fill="none" xmlns="http://www.w3.org/2000/svg">
<path d="M108.99 301.055L212.8 115.517L317.749 301.055L213.758 362.422L108.99 301.055Z" fill="#EBF4FF" fill-opacity="0.9"/>
<path d="M108.99 301.055L212.8 115.517L317.749 301.055M108.99 301.055L213.758 362.422L317.749 301.055M108.99 301.055L161.374 271.246L213.758 241.437L317.749 301.055" stroke="#4C51BF" stroke-width="3.64629"/>
<path d="M163.157 289.15L213.953 201.504L264.373 289.15L213.953 318.931L163.157 289.15Z" fill="url(#paint0_linear_6753_13197)" fill-opacity="0.9"/>
<path d="M107.804 302.229L213.981 114.336L214.16 240.85V363.608L107.804 302.229Z" fill="url(#paint1_linear_6753_13197)"/>
<path d="M150.308 194.838L126.276 208.713L150.308 222.588L174.34 208.713L162.324 201.775L150.308 194.838Z" fill="#EBF4FF" stroke="#535BCB" stroke-width="3.64629" stroke-linejoin="round"/>
<path d="M126.276 236.492L150.308 250.367V222.617L126.276 208.742V236.492Z" fill="url(#paint2_linear_6753_13197)" stroke="#535BCB" stroke-width="3.64629" stroke-linejoin="round"/>
<path d="M174.34 236.494V208.744L150.308 222.619V250.369L174.34 236.494Z" fill="url(#paint3_linear_6753_13197)" stroke="#535BCB" stroke-width="3.64629" stroke-linejoin="round"/>
<path d="M105.072 394.835L91.845 402.472L105.072 410.108L118.299 402.472L111.685 398.653L105.072 394.835Z" fill="#EBF4FF"/>
<path d="M91.8452 417.76L105.072 425.397V410.124L91.8452 402.487V417.76Z" fill="url(#paint4_linear_6753_13197)"/>
<path d="M118.299 417.761V402.488L105.072 410.125V425.398L118.299 417.761Z" fill="url(#paint5_linear_6753_13197)"/>
<path d="M105.029 372.859L91.8018 380.496L105.029 388.133L118.256 380.496L111.642 376.678L105.029 372.859Z" fill="#EBF4FF" stroke="#535BCB" stroke-width="3.64629" stroke-linejoin="round"/>
<path d="M91.8018 395.785L105.029 403.422V388.148L91.8018 380.512V395.785Z" fill="url(#paint6_linear_6753_13197)" stroke="#535BCB" stroke-width="3.64629" stroke-linejoin="round"/>
<path d="M118.256 395.786V380.513L105.029 388.149V403.422L118.256 395.786Z" fill="url(#paint7_linear_6753_13197)" stroke="#535BCB" stroke-width="3.64629" stroke-linejoin="round"/>
<path d="M107.604 114.961L80.8245 130.422L107.604 145.884L134.384 130.422L120.994 122.692L107.604 114.961Z" fill="#FF6BE4" stroke="#535BCB" stroke-width="3.64629" stroke-linejoin="round"/>
<path d="M80.8245 161.378L107.604 176.839V145.916L80.8245 130.455V161.378Z" fill="url(#paint8_linear_6753_13197)" stroke="#535BCB" stroke-width="3.64629" stroke-linejoin="round"/>
<path d="M134.384 161.38V130.457L107.604 145.918V176.841L134.384 161.38Z" fill="url(#paint9_linear_6753_13197)" stroke="#535BCB" stroke-width="3.64629" stroke-linejoin="round"/>
<path d="M440.041 42.3274L311.37 119.648" stroke="url(#paint10_linear_6753_13197)" stroke-width="3.64629" stroke-dasharray="7.29 7.29"/>
<g filter="url(#filter0_f_6753_13197)">
<circle r="15.8606" transform="matrix(1 -1.5885e-07 -1.5885e-07 -1 315.426 116.772)" fill="url(#paint11_radial_6753_13197)" fill-opacity="0.5"/>
</g>
<ellipse rx="4.73517" ry="4.73516" transform="matrix(1 -1.5885e-07 -1.5885e-07 -1 315.515 116.684)" fill="#92EFE6"/>
<g filter="url(#filter1_f_6753_13197)">
<circle r="15.8606" transform="matrix(1 -1.5885e-07 -1.5885e-07 -1 427.806 114.972)" fill="url(#paint12_radial_6753_13197)" fill-opacity="0.5"/>
</g>
<ellipse rx="4.73517" ry="4.73516" transform="matrix(1 -1.5885e-07 -1.5885e-07 -1 428.303 115.039)" fill="#92EFE6"/>
<path d="M107.287 74.79L90.0286 84.7542L107.287 94.7183L124.545 84.7542L115.916 79.7721L107.287 74.79Z" fill="#B7F4EE" stroke="#535BCB" stroke-width="3.64629" stroke-linejoin="round"/>
<path d="M90.0286 104.704L107.287 114.668V94.7395L90.0286 84.7754V104.704Z" fill="url(#paint13_linear_6753_13197)" stroke="#535BCB" stroke-width="3.64629" stroke-linejoin="round"/>
<path d="M124.545 104.706V84.7773L107.287 94.7415V114.67L124.545 104.706Z" fill="url(#paint14_linear_6753_13197)" stroke="#535BCB" stroke-width="3.64629" stroke-linejoin="round"/>
<path d="M419.406 341.21L397.491 353.862L419.406 366.514L441.32 353.862L430.363 347.536L419.406 341.21Z" fill="#FF6BE4" stroke="#535BCB" stroke-width="3.64629" stroke-linejoin="round"/>
<path d="M397.491 379.192L419.406 391.844V366.54L397.491 353.888V379.192Z" fill="url(#paint15_linear_6753_13197)" stroke="#535BCB" stroke-width="3.64629" stroke-linejoin="round"/>
<path d="M441.32 379.194V353.89L419.406 366.542V391.846L441.32 379.194Z" fill="url(#paint16_linear_6753_13197)" stroke="#535BCB" stroke-width="3.64629" stroke-linejoin="round"/>
<path d="M291.16 100.761L265.332 115.673L291.16 130.585L316.988 115.673L304.074 108.217L291.16 100.761Z" fill="#B7F4EE"/>
<path d="M265.331 145.527L291.159 160.439V130.615L265.331 115.703V145.527Z" fill="url(#paint17_linear_6753_13197)"/>
<path d="M316.988 145.53V115.706L291.159 130.618V160.442L316.988 145.53Z" fill="url(#paint18_linear_6753_13197)"/>
<path d="M23.9627 318.794L-1.86548 333.706L23.9627 348.618L49.7908 333.706L36.8768 326.25L23.9627 318.794Z" fill="#B7F4EE"/>
<path d="M-1.86572 363.56L23.9624 378.472V348.648L-1.86572 333.736V363.56Z" fill="url(#paint19_linear_6753_13197)"/>
<path d="M49.7906 363.563V333.739L23.9624 348.651V378.475L49.7906 363.563Z" fill="url(#paint20_linear_6753_13197)"/>
<path d="M403.447 472.61L215.99 363.609" stroke="url(#paint21_linear_6753_13197)" stroke-width="3.64629" stroke-dasharray="7.29 7.29"/>
<path d="M41.2834 356.333L28.0564 363.97L41.2834 371.606L54.5103 363.97L47.8969 360.151L41.2834 356.333Z" fill="#EBF4FF" stroke="#535BCB" stroke-width="3.64629" stroke-linejoin="round"/>
<path d="M28.0564 379.259L41.2834 386.895V371.622L28.0564 363.985V379.259Z" fill="url(#paint22_linear_6753_13197)" stroke="#535BCB" stroke-width="3.64629" stroke-linejoin="round"/>
<path d="M54.5102 379.26V363.986L41.2832 371.623V386.896L54.5102 379.26Z" fill="url(#paint23_linear_6753_13197)" stroke="#535BCB" stroke-width="3.64629" stroke-linejoin="round"/>
<path d="M23.5706 4.16766L213.207 114.92" stroke="url(#paint24_linear_6753_13197)" stroke-width="3.64629" stroke-dasharray="7.29 7.29"/>
<path d="M233.984 2.00015L406.988 101.941" stroke="url(#paint25_linear_6753_13197)" stroke-width="3.64629" stroke-dasharray="7.29 7.29"/>
<path d="M29.2368 96.0385L103.016 52.9512" stroke="#FF6BE4" stroke-width="3.64629" stroke-dasharray="7.29 7.29"/>
<path d="M397.607 379.151L321.61 423.028" stroke="#FF6BE4" stroke-width="3.64629" stroke-dasharray="7.29 7.29"/>
<g filter="url(#filter2_f_6753_13197)">
<circle r="15.8606" transform="matrix(1 -1.5885e-07 -1.5885e-07 -1 213.905 362.16)" fill="url(#paint26_radial_6753_13197)" fill-opacity="0.5"/>
</g>
<ellipse rx="4.73517" ry="4.73516" transform="matrix(1 -1.5885e-07 -1.5885e-07 -1 214.402 362.227)" fill="#92EFE6"/>
<g filter="url(#filter3_f_6753_13197)">
<circle r="15.8606" transform="matrix(1 -1.5885e-07 -1.5885e-07 -1 212.077 115.321)" fill="url(#paint27_radial_6753_13197)" fill-opacity="0.5"/>
</g>
<ellipse rx="4.73517" ry="4.73516" transform="matrix(1 -1.5885e-07 -1.5885e-07 -1 212.574 115.387)" fill="#92EFE6"/>
<g filter="url(#filter4_f_6753_13197)">
<circle r="15.8137" transform="matrix(1 -1.5885e-07 -1.5885e-07 -1 104.665 51.0574)" fill="url(#paint28_radial_6753_13197)" fill-opacity="0.5"/>
</g>
<ellipse rx="4.72116" ry="4.72116" transform="matrix(1 -1.5885e-07 -1.5885e-07 -1 104.196 50.9361)" fill="#FF6AE4"/>
<g filter="url(#filter5_f_6753_13197)">
<circle r="15.8137" transform="matrix(1 -1.5885e-07 -1.5885e-07 -1 320.712 424.775)" fill="url(#paint29_radial_6753_13197)" fill-opacity="0.5"/>
</g>
<ellipse rx="4.72116" ry="4.72116" transform="matrix(1 -1.5885e-07 -1.5885e-07 -1 321.208 424.842)" fill="#FF6AE4"/>
<g filter="url(#filter6_f_6753_13197)">
<circle r="15.8137" transform="matrix(1 -1.5885e-07 -1.5885e-07 -1 29.1138 95.9158)" fill="url(#paint30_radial_6753_13197)" fill-opacity="0.5"/>
</g>
<ellipse rx="4.72116" ry="4.72116" transform="matrix(1 -1.5885e-07 -1.5885e-07 -1 29.2358 96.0396)" fill="#FF6AE4"/>
<g filter="url(#filter7_f_6753_13197)">
<circle r="10.695" transform="matrix(1 -1.5885e-07 -1.5885e-07 -1 -3.74545 361.716)" fill="url(#paint31_radial_6753_13197)" fill-opacity="0.5"/>
</g>
<path d="M290.989 222.624L266.957 236.499L290.989 250.374L315.021 236.499L303.005 229.561L290.989 222.624Z" fill="#EBF4FF" stroke="#535BCB" stroke-width="3.64629" stroke-linejoin="round"/>
<path d="M266.957 264.278L290.989 278.153V250.403L266.957 236.528V264.278Z" fill="url(#paint32_linear_6753_13197)" stroke="#535BCB" stroke-width="3.64629" stroke-linejoin="round"/>
<path d="M315.021 264.28V236.53L290.989 250.405V278.155L315.021 264.28Z" fill="url(#paint33_linear_6753_13197)" stroke="#535BCB" stroke-width="3.64629" stroke-linejoin="round"/>
<defs>
<filter id="filter0_f_6753_13197" x="290.449" y="91.7954" width="49.9526" height="49.9531" filterUnits="userSpaceOnUse" color-interpolation-filters="sRGB">
<feFlood flood-opacity="0" result="BackgroundImageFix"/>
<feBlend mode="normal" in="SourceGraphic" in2="BackgroundImageFix" result="shape"/>
<feGaussianBlur stdDeviation="4.55786" result="effect1_foregroundBlur_6753_13197"/>
</filter>
<filter id="filter1_f_6753_13197" x="402.829" y="89.9956" width="49.9526" height="49.9531" filterUnits="userSpaceOnUse" color-interpolation-filters="sRGB">
<feFlood flood-opacity="0" result="BackgroundImageFix"/>
<feBlend mode="normal" in="SourceGraphic" in2="BackgroundImageFix" result="shape"/>
<feGaussianBlur stdDeviation="4.55786" result="effect1_foregroundBlur_6753_13197"/>
</filter>
<filter id="filter2_f_6753_13197" x="188.929" y="337.183" width="49.9526" height="49.9531" filterUnits="userSpaceOnUse" color-interpolation-filters="sRGB">
<feFlood flood-opacity="0" result="BackgroundImageFix"/>
<feBlend mode="normal" in="SourceGraphic" in2="BackgroundImageFix" result="shape"/>
<feGaussianBlur stdDeviation="4.55786" result="effect1_foregroundBlur_6753_13197"/>
</filter>
<filter id="filter3_f_6753_13197" x="187.101" y="90.3442" width="49.9526" height="49.9531" filterUnits="userSpaceOnUse" color-interpolation-filters="sRGB">
<feFlood flood-opacity="0" result="BackgroundImageFix"/>
<feBlend mode="normal" in="SourceGraphic" in2="BackgroundImageFix" result="shape"/>
<feGaussianBlur stdDeviation="4.55786" result="effect1_foregroundBlur_6753_13197"/>
</filter>
<filter id="filter4_f_6753_13197" x="79.7351" y="26.1284" width="49.8589" height="49.8584" filterUnits="userSpaceOnUse" color-interpolation-filters="sRGB">
<feFlood flood-opacity="0" result="BackgroundImageFix"/>
<feBlend mode="normal" in="SourceGraphic" in2="BackgroundImageFix" result="shape"/>
<feGaussianBlur stdDeviation="4.55786" result="effect1_foregroundBlur_6753_13197"/>
</filter>
<filter id="filter5_f_6753_13197" x="295.783" y="399.846" width="49.8589" height="49.8584" filterUnits="userSpaceOnUse" color-interpolation-filters="sRGB">
<feFlood flood-opacity="0" result="BackgroundImageFix"/>
<feBlend mode="normal" in="SourceGraphic" in2="BackgroundImageFix" result="shape"/>
<feGaussianBlur stdDeviation="4.55786" result="effect1_foregroundBlur_6753_13197"/>
</filter>
<filter id="filter6_f_6753_13197" x="4.18432" y="70.9868" width="49.8589" height="49.8584" filterUnits="userSpaceOnUse" color-interpolation-filters="sRGB">
<feFlood flood-opacity="0" result="BackgroundImageFix"/>
<feBlend mode="normal" in="SourceGraphic" in2="BackgroundImageFix" result="shape"/>
<feGaussianBlur stdDeviation="4.55786" result="effect1_foregroundBlur_6753_13197"/>
</filter>
<filter id="filter7_f_6753_13197" x="-23.5562" y="341.906" width="39.6213" height="39.6211" filterUnits="userSpaceOnUse" color-interpolation-filters="sRGB">
<feFlood flood-opacity="0" result="BackgroundImageFix"/>
<feBlend mode="normal" in="SourceGraphic" in2="BackgroundImageFix" result="shape"/>
<feGaussianBlur stdDeviation="4.55786" result="effect1_foregroundBlur_6753_13197"/>
</filter>
<linearGradient id="paint0_linear_6753_13197" x1="238.674" y1="234.716" x2="163.168" y2="293.245" gradientUnits="userSpaceOnUse">
<stop stop-color="#04C8BB"/>
<stop offset="0.319387" stop-color="#71E8DF"/>
<stop offset="0.652726" stop-color="#B7F4EE"/>
<stop offset="1" stop-color="#D9F9F6"/>
</linearGradient>
<linearGradient id="paint1_linear_6753_13197" x1="160.982" y1="118.87" x2="160.982" y2="363.608" gradientUnits="userSpaceOnUse">
<stop stop-color="#EBF4FF"/>
<stop offset="1" stop-color="#EBF4FF" stop-opacity="0"/>
</linearGradient>
<linearGradient id="paint2_linear_6753_13197" x1="138.292" y1="208.742" x2="138.292" y2="250.367" gradientUnits="userSpaceOnUse">
<stop stop-color="#EBF4FF"/>
<stop offset="1" stop-color="#EBF4FF" stop-opacity="0"/>
</linearGradient>
<linearGradient id="paint3_linear_6753_13197" x1="162.324" y1="208.744" x2="162.324" y2="250.369" gradientUnits="userSpaceOnUse">
<stop stop-color="#EBF4FF"/>
<stop offset="1" stop-color="#EBF4FF" stop-opacity="0"/>
</linearGradient>
<linearGradient id="paint4_linear_6753_13197" x1="98.4587" y1="402.487" x2="98.4587" y2="425.397" gradientUnits="userSpaceOnUse">
<stop stop-color="#EBF4FF"/>
<stop offset="1" stop-color="#EBF4FF" stop-opacity="0"/>
</linearGradient>
<linearGradient id="paint5_linear_6753_13197" x1="111.686" y1="402.488" x2="111.686" y2="425.398" gradientUnits="userSpaceOnUse">
<stop stop-color="#EBF4FF"/>
<stop offset="1" stop-color="#EBF4FF" stop-opacity="0"/>
</linearGradient>
<linearGradient id="paint6_linear_6753_13197" x1="98.4152" y1="380.512" x2="98.4152" y2="403.422" gradientUnits="userSpaceOnUse">
<stop stop-color="#EBF4FF"/>
<stop offset="1" stop-color="#EBF4FF" stop-opacity="0"/>
</linearGradient>
<linearGradient id="paint7_linear_6753_13197" x1="111.642" y1="380.513" x2="111.642" y2="403.422" gradientUnits="userSpaceOnUse">
<stop stop-color="#EBF4FF"/>
<stop offset="1" stop-color="#EBF4FF" stop-opacity="0"/>
</linearGradient>
<linearGradient id="paint8_linear_6753_13197" x1="94.2144" y1="130.455" x2="94.2144" y2="176.839" gradientUnits="userSpaceOnUse">
<stop stop-color="#E13FC2"/>
<stop offset="1" stop-color="#E13FC2" stop-opacity="0"/>
</linearGradient>
<linearGradient id="paint9_linear_6753_13197" x1="120.994" y1="130.457" x2="120.994" y2="176.841" gradientUnits="userSpaceOnUse">
<stop stop-color="#E13FC2"/>
<stop offset="1" stop-color="#E13FC2" stop-opacity="0"/>
</linearGradient>
<linearGradient id="paint10_linear_6753_13197" x1="432.216" y1="47.0287" x2="317.89" y2="115.73" gradientUnits="userSpaceOnUse">
<stop stop-color="#B7F4EE" stop-opacity="0"/>
<stop offset="0.58262" stop-color="#B7F4EE"/>
</linearGradient>
<radialGradient id="paint11_radial_6753_13197" cx="0" cy="0" r="1" gradientUnits="userSpaceOnUse" gradientTransform="translate(15.8606 15.8606) rotate(90) scale(15.8606)">
<stop offset="0.416462" stop-color="#B7F4EE"/>
<stop offset="1" stop-color="#B7F4EE" stop-opacity="0"/>
</radialGradient>
<radialGradient id="paint12_radial_6753_13197" cx="0" cy="0" r="1" gradientUnits="userSpaceOnUse" gradientTransform="translate(15.8606 15.8606) rotate(90) scale(15.8606)">
<stop offset="0.416462" stop-color="#B7F4EE"/>
<stop offset="1" stop-color="#B7F4EE" stop-opacity="0"/>
</radialGradient>
<linearGradient id="paint13_linear_6753_13197" x1="98.6578" y1="84.7754" x2="98.6578" y2="114.668" gradientUnits="userSpaceOnUse">
<stop stop-color="#92EFE6"/>
<stop offset="1" stop-color="#B7F4EE" stop-opacity="0"/>
</linearGradient>
<linearGradient id="paint14_linear_6753_13197" x1="115.916" y1="84.7773" x2="115.916" y2="114.67" gradientUnits="userSpaceOnUse">
<stop stop-color="#92EFE6"/>
<stop offset="1" stop-color="#B7F4EE" stop-opacity="0"/>
</linearGradient>
<linearGradient id="paint15_linear_6753_13197" x1="408.449" y1="353.888" x2="408.449" y2="391.844" gradientUnits="userSpaceOnUse">
<stop stop-color="#E13FC2"/>
<stop offset="1" stop-color="#E13FC2" stop-opacity="0"/>
</linearGradient>
<linearGradient id="paint16_linear_6753_13197" x1="430.363" y1="353.89" x2="430.363" y2="391.846" gradientUnits="userSpaceOnUse">
<stop stop-color="#E13FC2"/>
<stop offset="1" stop-color="#E13FC2" stop-opacity="0"/>
</linearGradient>
<linearGradient id="paint17_linear_6753_13197" x1="278.245" y1="115.703" x2="278.245" y2="160.439" gradientUnits="userSpaceOnUse">
<stop stop-color="#92EFE6"/>
<stop offset="1" stop-color="#B7F4EE" stop-opacity="0"/>
</linearGradient>
<linearGradient id="paint18_linear_6753_13197" x1="304.074" y1="115.706" x2="304.074" y2="160.442" gradientUnits="userSpaceOnUse">
<stop stop-color="#92EFE6"/>
<stop offset="1" stop-color="#B7F4EE" stop-opacity="0"/>
</linearGradient>
<linearGradient id="paint19_linear_6753_13197" x1="11.0484" y1="333.736" x2="11.0484" y2="378.472" gradientUnits="userSpaceOnUse">
<stop stop-color="#92EFE6"/>
<stop offset="1" stop-color="#B7F4EE" stop-opacity="0"/>
</linearGradient>
<linearGradient id="paint20_linear_6753_13197" x1="36.8765" y1="333.739" x2="36.8765" y2="378.475" gradientUnits="userSpaceOnUse">
<stop stop-color="#92EFE6"/>
<stop offset="1" stop-color="#B7F4EE" stop-opacity="0"/>
</linearGradient>
<linearGradient id="paint21_linear_6753_13197" x1="392.048" y1="465.981" x2="225.489" y2="369.133" gradientUnits="userSpaceOnUse">
<stop stop-color="#FF6BE4" stop-opacity="0"/>
<stop offset="0.282928" stop-color="#FF6BE4"/>
<stop offset="1" stop-color="#B7F4EE"/>
</linearGradient>
<linearGradient id="paint22_linear_6753_13197" x1="34.6699" y1="363.985" x2="34.6699" y2="386.895" gradientUnits="userSpaceOnUse">
<stop stop-color="#EBF4FF"/>
<stop offset="1" stop-color="#EBF4FF" stop-opacity="0"/>
</linearGradient>
<linearGradient id="paint23_linear_6753_13197" x1="47.8967" y1="363.986" x2="47.8967" y2="386.896" gradientUnits="userSpaceOnUse">
<stop stop-color="#EBF4FF"/>
<stop offset="1" stop-color="#EBF4FF" stop-opacity="0"/>
</linearGradient>
<linearGradient id="paint24_linear_6753_13197" x1="35.1022" y1="10.9033" x2="203.596" y2="109.308" gradientUnits="userSpaceOnUse">
<stop stop-color="#FF6AE4" stop-opacity="0"/>
<stop offset="0.432672" stop-color="#FF6BE4"/>
<stop offset="1" stop-color="#B7F4EE"/>
</linearGradient>
<linearGradient id="paint25_linear_6753_13197" x1="244.505" y1="8.07831" x2="398.221" y2="96.8772" gradientUnits="userSpaceOnUse">
<stop offset="0.253648" stop-color="#B7F4EE" stop-opacity="0"/>
<stop offset="1" stop-color="#B7F4EE"/>
</linearGradient>
<radialGradient id="paint26_radial_6753_13197" cx="0" cy="0" r="1" gradientUnits="userSpaceOnUse" gradientTransform="translate(15.8606 15.8606) rotate(90) scale(15.8606)">
<stop offset="0.416462" stop-color="#B7F4EE"/>
<stop offset="1" stop-color="#B7F4EE" stop-opacity="0"/>
</radialGradient>
<radialGradient id="paint27_radial_6753_13197" cx="0" cy="0" r="1" gradientUnits="userSpaceOnUse" gradientTransform="translate(15.8606 15.8606) rotate(90) scale(15.8606)">
<stop offset="0.416462" stop-color="#B7F4EE"/>
<stop offset="1" stop-color="#B7F4EE" stop-opacity="0"/>
</radialGradient>
<radialGradient id="paint28_radial_6753_13197" cx="0" cy="0" r="1" gradientUnits="userSpaceOnUse" gradientTransform="translate(15.8137 15.8137) rotate(90) scale(15.8137)">
<stop offset="0.416462" stop-color="#FF6BE4"/>
<stop offset="1" stop-color="#FF9FF2" stop-opacity="0"/>
</radialGradient>
<radialGradient id="paint29_radial_6753_13197" cx="0" cy="0" r="1" gradientUnits="userSpaceOnUse" gradientTransform="translate(15.8137 15.8137) rotate(90) scale(15.8137)">
<stop offset="0.416462" stop-color="#FF6BE4"/>
<stop offset="1" stop-color="#FF9FF2" stop-opacity="0"/>
</radialGradient>
<radialGradient id="paint30_radial_6753_13197" cx="0" cy="0" r="1" gradientUnits="userSpaceOnUse" gradientTransform="translate(15.8137 15.8137) rotate(90) scale(15.8137)">
<stop offset="0.416462" stop-color="#FF6BE4"/>
<stop offset="1" stop-color="#FF9FF2" stop-opacity="0"/>
</radialGradient>
<radialGradient id="paint31_radial_6753_13197" cx="0" cy="0" r="1" gradientUnits="userSpaceOnUse" gradientTransform="translate(10.695 10.695) rotate(90) scale(10.695)">
<stop offset="0.416462" stop-color="#B7F4EE"/>
<stop offset="1" stop-color="#B7F4EE" stop-opacity="0"/>
</radialGradient>
<linearGradient id="paint32_linear_6753_13197" x1="278.973" y1="236.528" x2="278.973" y2="278.153" gradientUnits="userSpaceOnUse">
<stop stop-color="#EBF4FF"/>
<stop offset="1" stop-color="#EBF4FF" stop-opacity="0"/>
</linearGradient>
<linearGradient id="paint33_linear_6753_13197" x1="303.005" y1="236.53" x2="303.005" y2="278.155" gradientUnits="userSpaceOnUse">
<stop stop-color="#EBF4FF"/>
<stop offset="1" stop-color="#EBF4FF" stop-opacity="0"/>
</linearGradient>
</defs>
</svg>
